<?xml version="1.0" encoding="UTF-8"?><svg id="Capa_2" xmlns="http://www.w3.org/2000/svg" viewBox="0 0 29.47 25.01"><defs><style>.cls-1{fill:#1e110c;stroke:#1e110c;stroke-miterlimit:10;stroke-width:.22px;}</style></defs><g id="CONTENIDO"><g><path class="cls-1" d="m28.91,24.9H.56c-.25,0-.45-.2-.45-.45s.2-.45.45-.45h28.35c.25,0,.45.2.45.45s-.2.45-.45.45Z"/><path class="cls-1" d="m27,24.9H2.47c-.25,0-.45-.2-.45-.45v-14.81c0-.25.2-.45.45-.45s.45.2.45.45v14.36h23.63v-14.36c0-.25.2-.45.45-.45s.45.2.45.45v14.81c0,.25-.2.45-.45.45Z"/><path class="cls-1" d="m17.26,24.9c-.25,0-.45-.2-.45-.45v-11.04h-4.14v11.04c0,.25-.2.45-.45.45s-.45-.2-.45-.45v-11.49c0-.25.2-.45.45-.45h5.04c.25,0,.45.2.45.45v11.49c0,.25-.2.45-.45.45Z"/><g><path class="cls-1" d="m2.59,8.52c-1.04,0-1.96-.63-2.32-1.61-.36-.98-.09-2.05.7-2.74L4.88.79c.51-.44,1.16-.68,1.83-.68h2.69c.17,0,.32.09.4.24.08.15.07.33-.03.47l-4.3,6.2c-.65.94-1.73,1.5-2.87,1.5ZM6.71,1.01c-.46,0-.9.16-1.24.46l-3.91,3.38c-.61.53-.63,1.25-.45,1.74.18.5.67,1.02,1.48,1.02.85,0,1.65-.42,2.13-1.12l3.81-5.49h-1.82Z"/><path class="cls-1" d="m9.15,8.52c-1.16,0-2.17-.61-2.7-1.64-.54-1.02-.46-2.2.2-3.15L9.02.3c.08-.12.22-.19.37-.19h3.56c.14,0,.27.06.35.17.09.11.12.25.09.38l-1.27,5.49c-.32,1.39-1.54,2.36-2.97,2.36Zm.48-7.51l-2.24,3.23c-.46.67-.52,1.5-.14,2.22.38.72,1.09,1.15,1.9,1.15,1.01,0,1.87-.68,2.09-1.66l1.14-4.94h-2.76Z"/><path class="cls-1" d="m14.74,8.52c-1,0-1.92-.45-2.54-1.23-.62-.78-.85-1.78-.62-2.75l.94-4.08c.05-.2.23-.35.44-.35h3.56c.21,0,.39.14.44.35l.94,4.08c.22.97,0,1.97-.62,2.75-.62.78-1.55,1.23-2.54,1.23Zm-1.42-7.51l-.86,3.73c-.16.7,0,1.43.45,1.99.45.56,1.12.89,1.84.89s1.39-.32,1.84-.89c.45-.56.61-1.29.45-1.99l-.86-3.73h-2.84Z"/><path class="cls-1" d="m20.32,8.52c-1.43,0-2.65-.97-2.97-2.36l-1.27-5.49c-.03-.13,0-.27.09-.38.09-.11.22-.17.35-.17h3.56c.15,0,.29.07.37.19l2.38,3.43c.66.95.73,2.13.2,3.15-.54,1.02-1.55,1.64-2.7,1.64Zm-3.24-7.51l1.14,4.94c.23.98,1.09,1.66,2.09,1.66.81,0,1.53-.43,1.9-1.15.38-.72.33-1.55-.14-2.22l-2.24-3.23h-2.76Z"/><path class="cls-1" d="m26.88,8.52c-1.15,0-2.22-.56-2.87-1.5L19.71.82c-.1-.14-.11-.32-.03-.47.08-.15.23-.24.4-.24h2.69c.67,0,1.32.24,1.83.68l3.91,3.38c.79.68,1.07,1.76.7,2.74-.36.98-1.28,1.61-2.32,1.61Zm-5.94-7.51l3.81,5.49c.49.7,1.28,1.12,2.13,1.12.81,0,1.29-.53,1.48-1.02.18-.5.16-1.21-.45-1.74l-3.91-3.38c-.35-.3-.79-.46-1.24-.46h-1.82Z"/></g><path class="cls-1" d="m23.9,19.66h-3.61c-.25,0-.45-.2-.45-.45v-6.25c0-.25.2-.45.45-.45h3.61c.25,0,.45.2.45.45v6.25c0,.25-.2.45-.45.45Zm-3.16-.9h2.71v-5.35h-2.71v5.35Z"/><path class="cls-1" d="m9.18,19.66h-3.61c-.25,0-.45-.2-.45-.45v-6.25c0-.25.2-.45.45-.45h3.61c.25,0,.45.2.45.45v6.25c0,.25-.2.45-.45.45Zm-3.16-.9h2.71v-5.35h-2.71v5.35Z"/><path class="cls-1" d="m15.81,19.15c-.06,0-.12-.01-.17-.03-.05-.02-.11-.06-.15-.1-.02-.02-.04-.05-.06-.07-.02-.03-.03-.05-.04-.08-.01-.03-.02-.06-.03-.09,0-.03-.01-.06-.01-.09,0-.12.05-.23.13-.32.04-.04.09-.07.15-.1.11-.04.23-.04.35,0,.05.02.1.06.14.1.09.09.13.2.13.32,0,.03,0,.06-.01.09,0,.03-.01.06-.03.09-.01.03-.02.05-.04.08-.02.02-.03.05-.06.07-.09.09-.2.13-.32.13Z"/></g></g></svg>