<svg xmlns="http://www.w3.org/2000/svg" width="110.545" height="98.263" viewBox="0 0 110.545 98.263">
  <path id="Icon_metro-shop" data-name="Icon metro-shop" d="M35.576,36.87,40.434,4.627H15.168L4.611,32.264a9.688,9.688,0,0,0-.5,3.071c0,6.78,7.063,12.283,15.79,12.283,8.045,0,14.7-4.692,15.673-10.748Zm23.81,10.748c8.721,0,15.79-5.5,15.79-12.283,0-.252-.018-.5-.031-.743L72.019,4.627H46.753l-3.132,29.94c-.012.252-.025.5-.025.768,0,6.78,7.069,12.283,15.79,12.283Zm30.707,6.424V78.325H28.679V54.078A25.841,25.841,0,0,1,19.9,55.6a25.322,25.322,0,0,1-3.507-.3V94.292a8.617,8.617,0,0,0,8.586,8.6h68.8a8.627,8.627,0,0,0,8.6-8.6V55.306a26.387,26.387,0,0,1-3.507.3A25.521,25.521,0,0,1,90.093,54.041Zm24.074-21.778L103.6,4.627H78.338L83.19,36.821c.946,6.08,7.6,10.8,15.679,10.8,8.721,0,15.79-5.5,15.79-12.283A9.863,9.863,0,0,0,114.167,32.264Z" transform="translate(-4.113 -4.627)"/>
</svg>
