<?xml version="1.0" encoding="UTF-8"?><svg id="Capa_2" xmlns="http://www.w3.org/2000/svg" viewBox="0 0 32.54 24.36"><defs><style>.cls-1{fill:#1e110c;stroke:#1e110c;stroke-miterlimit:10;stroke-width:.23px;}</style></defs><g id="CONTENIDO"><g><g><path class="cls-1" d="m8.55,24.25H3.41c-.25,0-.45-.2-.45-.45v-7.45c0-.25.2-.45.45-.45h5.14c.25,0,.45.2.45.45v7.45c0,.25-.2.45-.45.45Zm-4.7-.9h4.25v-6.56H3.86v6.56Z"/><path class="cls-1" d="m13.7,24.25h-5.14c-.25,0-.45-.2-.45-.45v-11.4c0-.25.2-.45.45-.45h5.14c.25,0,.45.2.45.45v11.4c0,.25-.2.45-.45.45Zm-4.7-.9h4.25v-10.5h-4.25v10.5Z"/><path class="cls-1" d="m18.84,24.25h-5.14c-.25,0-.45-.2-.45-.45v-15.34c0-.25.2-.45.45-.45h5.14c.25,0,.45.2.45.45v15.34c0,.25-.2.45-.45.45Zm-4.7-.9h4.25v-14.45h-4.25v14.45Z"/><path class="cls-1" d="m23.98,24.25h-5.14c-.25,0-.45-.2-.45-.45V4.51c0-.25.2-.45.45-.45h5.14c.25,0,.45.2.45.45v19.29c0,.25-.2.45-.45.45Zm-4.7-.9h4.25V4.96h-4.25v18.39Z"/><path class="cls-1" d="m29.13,24.25h-5.14c-.25,0-.45-.2-.45-.45V.56c0-.25.2-.45.45-.45h5.14c.25,0,.45.2.45.45v23.24c0,.25-.2.45-.45.45Zm-4.7-.9h4.25V1.01h-4.25v22.34Z"/></g><path class="cls-1" d="m31.97,24.25H.56c-.25,0-.45-.2-.45-.45s.2-.45.45-.45h31.41c.25,0,.45.2.45.45s-.2.45-.45.45Z"/><path class="cls-1" d="m13.54,17.89c-.14,0-.27-.06-.36-.18l-3.68-4.87c-.15-.2-.11-.48.09-.63.2-.15.48-.11.63.09l3.68,4.87c.15.2.11.48-.09.63-.08.06-.18.09-.27.09Z"/><path class="cls-1" d="m13.54,21.83c-.14,0-.27-.06-.36-.18l-4.99-6.62c-.15-.2-.11-.48.09-.63.2-.15.48-.11.63.09l4.99,6.62c.15.2.11.48-.09.63-.08.06-.18.09-.27.09Z"/><path class="cls-1" d="m12.31,24.14c-.14,0-.27-.06-.36-.18l-3.76-4.98c-.15-.2-.11-.48.09-.63.2-.15.48-.11.63.09l3.76,4.98c.15.2.11.48-.09.63-.08.06-.18.09-.27.09Z"/><path class="cls-1" d="m23.91,9.83c-.14,0-.27-.06-.36-.18l-3.68-4.87c-.15-.2-.11-.48.09-.63.2-.15.48-.11.63.09l3.68,4.87c.15.2.11.48-.09.63-.08.06-.18.09-.27.09Z"/><path class="cls-1" d="m23.91,13.78c-.14,0-.27-.06-.36-.18l-4.99-6.62c-.15-.2-.11-.48.09-.63.2-.15.48-.11.63.09l4.99,6.62c.15.2.11.48-.09.63-.08.06-.18.09-.27.09Z"/><path class="cls-1" d="m23.91,17.72c-.14,0-.27-.06-.36-.18l-4.99-6.62c-.15-.2-.11-.48.09-.63.2-.15.48-.11.63.09l4.99,6.62c.15.2.11.48-.09.63-.08.06-.18.09-.27.09Z"/><path class="cls-1" d="m23.91,21.67c-.14,0-.27-.06-.36-.18l-4.99-6.62c-.15-.2-.11-.48.09-.63.2-.15.48-.11.63.09l4.99,6.62c.15.2.11.48-.09.63-.08.06-.18.09-.27.09Z"/><path class="cls-1" d="m22.8,24.14c-.14,0-.27-.06-.36-.18l-3.88-5.15c-.15-.2-.11-.48.09-.63.2-.15.48-.11.63.09l3.88,5.15c.15.2.11.48-.09.63-.08.06-.18.09-.27.09Z"/></g></g></svg>