<?xml version="1.0" encoding="UTF-8"?><svg id="Capa_2" xmlns="http://www.w3.org/2000/svg" viewBox="0 0 28.2 24.89"><defs><style>.cls-1{fill:#1e110c;}</style></defs><g id="CONTENIDO"><g><path class="cls-1" d="m27.52,11.25c-.14,0-.28-.04-.4-.13L14.1,1.51,1.07,11.11c-.3.22-.72.16-.94-.14s-.16-.72.14-.94L13.7.13c.24-.18.56-.18.8,0l13.42,9.9c.3.22.36.64.14.94-.13.18-.34.27-.54.27Z"/><path class="cls-1" d="m24.69,24.89h-8.74c-.37,0-.67-.3-.67-.67v-7.79h-2.36v7.79c0,.37-.3.67-.67.67H3.51c-.37,0-.67-.3-.67-.67v-15.73c0-.37.3-.67.67-.67s.67.3.67.67v15.06h7.39v-7.79c0-.37.3-.67.67-.67h3.71c.37,0,.67.3.67.67v7.79h7.39v-15.06c0-.37.3-.67.67-.67s.67.3.67.67v15.73c0,.37-.3.67-.67.67Z"/></g></g></svg>