<svg xmlns="http://www.w3.org/2000/svg" width="79.053" height="63.075" viewBox="0 0 79.053 63.075">
  <path id="Icon_awesome-map-marked-alt" data-name="Icon awesome-map-marked-alt" d="M39.527,0C29.976,0,22.234,6.949,22.234,15.522c0,6.931,11.3,19.563,15.632,24.148a2.328,2.328,0,0,0,3.321,0c4.33-4.585,15.632-17.218,15.632-24.148C56.82,6.949,49.078,0,39.527,0Zm0,20.7c-3.184,0-5.764-2.316-5.764-5.174s2.58-5.174,5.764-5.174,5.764,2.316,5.764,5.174S42.711,20.7,39.527,20.7ZM2.761,26.6A3.971,3.971,0,0,0,0,30.264V61.1a2.181,2.181,0,0,0,3.011,1.831l18.948-7.742V26.477a35.607,35.607,0,0,1-2.916-5.719ZM39.527,44.309a6.886,6.886,0,0,1-5.011-2.089c-2.7-2.858-5.568-6.113-8.165-9.451V55.19L52.7,63.074V32.77c-2.6,3.337-5.465,6.593-8.165,9.451A6.889,6.889,0,0,1,39.527,44.309ZM76.042,19.854,57.094,27.6v35.48l19.2-6.893a3.97,3.97,0,0,0,2.761-3.66V21.685A2.181,2.181,0,0,0,76.042,19.854Z" fill="#11763b"/>
</svg>
