<svg xmlns="http://www.w3.org/2000/svg" width="104.591" height="119.533" viewBox="0 0 104.591 119.533">
  <path id="Icon_awesome-calendar-day" data-name="Icon awesome-calendar-day" d="M0,108.327a11.209,11.209,0,0,0,11.206,11.206H93.385a11.209,11.209,0,0,0,11.206-11.206v-63.5H0ZM14.942,63.5a3.746,3.746,0,0,1,3.735-3.735H41.089A3.746,3.746,0,0,1,44.825,63.5V85.914a3.746,3.746,0,0,1-3.735,3.735H18.677a3.746,3.746,0,0,1-3.735-3.735Zm78.443-48.56H82.179V3.735A3.746,3.746,0,0,0,78.443,0H70.973a3.746,3.746,0,0,0-3.735,3.735V14.942H37.354V3.735A3.746,3.746,0,0,0,33.619,0H26.148a3.746,3.746,0,0,0-3.735,3.735V14.942H11.206A11.209,11.209,0,0,0,0,26.148V37.354H104.591V26.148A11.209,11.209,0,0,0,93.385,14.942Z"/>
</svg>
