<?xml version="1.0" encoding="UTF-8"?><svg id="Capa_2" xmlns="http://www.w3.org/2000/svg" viewBox="0 0 29.31 25.51"><defs><style>.cls-1{fill:#1e110c;}</style></defs><g id="CONTENIDO"><g><g><path class="cls-1" d="m14.89,21.91c-2.57,0-4.74-2-4.91-4.6-.09-1.31.34-2.58,1.21-3.57.87-.99,2.07-1.58,3.38-1.67.88-.06,1.76.12,2.54.52.3.15.42.52.27.81-.15.3-.51.42-.81.27-.59-.3-1.25-.43-1.92-.39-.99.07-1.89.51-2.55,1.26-.65.75-.98,1.7-.91,2.69.13,2.04,1.9,3.59,3.95,3.46,1.45-.1,2.72-1.04,3.23-2.39.12-.31.47-.47.78-.35.31.12.47.47.35.78-.68,1.8-2.36,3.05-4.28,3.18-.11,0-.22.01-.33.01Z"/><path class="cls-1" d="m15.57,18.76c-.15,0-.3-.06-.42-.17l-2.35-2.23c-.24-.23-.25-.61-.02-.86.23-.24.61-.25.86-.02l1.93,1.83,3.8-3.72c.24-.23.62-.23.86,0,.23.24.23.62,0,.86l-4.22,4.13c-.12.12-.27.17-.42.17Z"/></g><g><path class="cls-1" d="m27.31,25.51H2.01c-1.11,0-2.01-.9-2.01-2.01V3.94C0,2.84.9,1.94,2.01,1.94h25.3c1.11,0,2.01.9,2.01,2.01v19.57c0,1.11-.9,2.01-2.01,2.01ZM2.01,3.15c-.44,0-.8.36-.8.8v19.57c0,.44.36.8.8.8h25.3c.44,0,.8-.36.8-.8V3.94c0-.44-.36-.8-.8-.8H2.01Z"/><path class="cls-1" d="m28.71,8.95H.61c-.33,0-.61-.27-.61-.61V3.94C0,2.84.9,1.94,2.01,1.94h25.3c1.11,0,2.01.9,2.01,2.01v4.4c0,.33-.27.61-.61.61ZM1.21,7.74h26.89v-3.79c0-.44-.36-.8-.8-.8H2.01c-.44,0-.8.36-.8.8v3.79Z"/><g><path class="cls-1" d="m5.52,5.08c-.33,0-.61-.27-.61-.61V.61c0-.33.27-.61.61-.61s.61.27.61.61v3.87c0,.33-.27.61-.61.61Z"/><path class="cls-1" d="m10.09,5.08c-.33,0-.61-.27-.61-.61V.61c0-.33.27-.61.61-.61s.61.27.61.61v3.87c0,.33-.27.61-.61.61Z"/><path class="cls-1" d="m19.23,5.08c-.33,0-.61-.27-.61-.61V.61c0-.33.27-.61.61-.61s.61.27.61.61v3.87c0,.33-.27.61-.61.61Z"/><path class="cls-1" d="m23.8,5.08c-.33,0-.61-.27-.61-.61V.61c0-.33.27-.61.61-.61s.61.27.61.61v3.87c0,.33-.27.61-.61.61Z"/><path class="cls-1" d="m14.66,5.08c-.33,0-.61-.27-.61-.61V.61c0-.33.27-.61.61-.61s.61.27.61.61v3.87c0,.33-.27.61-.61.61Z"/></g></g></g></g></svg>