<svg xmlns="http://www.w3.org/2000/svg" width="62.062" height="62.062" viewBox="0 0 62.062 62.062">
  <path id="Icon_awesome-check-square" data-name="Icon awesome-check-square" d="M55.412,64.312H6.649A6.649,6.649,0,0,1,0,57.663V8.9A6.649,6.649,0,0,1,6.649,2.25H55.412A6.649,6.649,0,0,1,62.062,8.9V57.663A6.649,6.649,0,0,1,55.412,64.312ZM27.057,50.728l25.49-25.49a2.217,2.217,0,0,0,0-3.135l-3.135-3.135a2.217,2.217,0,0,0-3.135,0L25.49,39.757l-9.705-9.705a2.217,2.217,0,0,0-3.135,0L9.515,33.186a2.217,2.217,0,0,0,0,3.135L23.922,50.728A2.216,2.216,0,0,0,27.057,50.728Z" transform="translate(0 -2.25)" fill="rgba(84,88,90,0.63)"/>
</svg>
