<svg xmlns="http://www.w3.org/2000/svg" width="102.538" height="102.538" viewBox="0 0 102.538 102.538">
  <path id="Icon_awesome-plus" data-name="Icon awesome-plus" d="M95.213,42.533H62.255V9.574A7.325,7.325,0,0,0,54.931,2.25H47.607a7.325,7.325,0,0,0-7.324,7.324V42.533H7.324A7.325,7.325,0,0,0,0,49.857v7.324A7.325,7.325,0,0,0,7.324,64.5H40.283V97.463a7.325,7.325,0,0,0,7.324,7.324h7.324a7.325,7.325,0,0,0,7.324-7.324V64.5H95.213a7.325,7.325,0,0,0,7.324-7.324V49.857A7.325,7.325,0,0,0,95.213,42.533Z" transform="translate(0 -2.25)" fill="#54585a"/>
</svg>
