<svg xmlns="http://www.w3.org/2000/svg" width="60.759" height="54.008" viewBox="0 0 60.759 54.008">
  <path id="Icon_awesome-exclamation-triangle" data-name="Icon awesome-exclamation-triangle" d="M60.075,46.415a5.066,5.066,0,0,1-4.386,7.594H5.069A5.066,5.066,0,0,1,.683,46.415L25.994,2.53a5.066,5.066,0,0,1,8.771,0Zm-29.7-9.073a4.852,4.852,0,1,0,4.852,4.852A4.852,4.852,0,0,0,30.38,37.342ZM25.773,19.9l.782,14.346a1.266,1.266,0,0,0,1.264,1.2H32.94a1.266,1.266,0,0,0,1.264-1.2L34.986,19.9a1.266,1.266,0,0,0-1.264-1.335H27.037A1.266,1.266,0,0,0,25.773,19.9Z" fill="#fed434"/>
</svg>
