<svg xmlns="http://www.w3.org/2000/svg" width="53.001" height="85.314" viewBox="0 0 53.001 85.314">
  <path id="Icon_open-question-mark" data-name="Icon open-question-mark" d="M26.341,0C17.276,0,10.558,2.773,6.292,7.038A23.27,23.27,0,0,0,0,20.689l10.664,1.386a12.924,12.924,0,0,1,3.306-7.358C16,12.69,19.2,10.664,26.341,10.664c7.038,0,10.877,1.706,13.01,3.626a8.915,8.915,0,0,1,2.986,7.038c0,8.851-3.626,11.3-8.958,16s-12.37,11.517-12.37,23.995v2.666H31.673V61.319c0-8.851,3.306-11.3,8.638-16S53,33.806,53,21.328A20.487,20.487,0,0,0,46.709,6.292C42.123,2.133,35.3,0,26.341,0ZM21.008,74.65V85.314H31.673V74.65Z"/>
</svg>
