<svg xmlns="http://www.w3.org/2000/svg" width="83.316" height="95.219" viewBox="0 0 83.316 95.219">
  <path id="Icon_awesome-calendar-plus" data-name="Icon awesome-calendar-plus" d="M81.085,29.756H2.232A2.238,2.238,0,0,1,0,27.524v-6.7A8.929,8.929,0,0,1,8.927,11.9h8.927V2.232A2.238,2.238,0,0,1,20.085,0h7.439a2.238,2.238,0,0,1,2.232,2.232V11.9h23.8V2.232A2.238,2.238,0,0,1,55.792,0h7.439a2.238,2.238,0,0,1,2.232,2.232V11.9H74.39a8.929,8.929,0,0,1,8.927,8.927v6.7A2.238,2.238,0,0,1,81.085,29.756ZM2.232,35.707H81.085a2.238,2.238,0,0,1,2.232,2.232V86.292a8.929,8.929,0,0,1-8.927,8.927H8.927A8.929,8.929,0,0,1,0,86.292V37.939A2.238,2.238,0,0,1,2.232,35.707ZM61,61.743a2.238,2.238,0,0,0-2.232-2.232H47.609V48.353a2.238,2.238,0,0,0-2.232-2.232H37.939a2.238,2.238,0,0,0-2.232,2.232V59.512H24.549a2.238,2.238,0,0,0-2.232,2.232v7.439a2.238,2.238,0,0,0,2.232,2.232H35.707V82.573A2.238,2.238,0,0,0,37.939,84.8h7.439a2.238,2.238,0,0,0,2.232-2.232V71.414H58.768A2.238,2.238,0,0,0,61,69.182Z"/>
</svg>
